<svg id="Capa_1" data-name="Capa 1" xmlns="http://www.w3.org/2000/svg" viewBox="0 0 1100 737"><defs><style>.cls-1{fill:#1d1e1b;}</style></defs><title>joinlife-large</title><path class="cls-1" d="M1040.29,280.69H1061v-1.85h-18v-.06l18-7.92v-2.5h-20.71v1.86h18v.06l-18,7.92Zm10.35,15.17c-6.12,0-9.13-1.51-9.13-4.72s2.93-4.79,9.13-4.79,9.14,1.54,9.14,4.76-2.9,4.75-9.14,4.75m-10.7-4.75c0,4.41,3.51,6.61,10.7,6.61s10.71-2.2,10.71-6.61-3.54-6.62-10.71-6.62-10.7,2.24-10.7,6.62m.35,12.38H1061v-1.85h-20.71Zm0,15.17h1.56v-5.33H1061v-1.86h-19.15v-5.34h-1.56Zm-.35,7.89c0,4.41,3.51,6.62,10.7,6.62s10.71-2.21,10.71-6.62c0-3.71-2.55-5.89-7.37-6.15v1.86c3.83.23,5.8,1.77,5.8,4.29,0,3.19-2.9,4.76-9.14,4.76s-9.13-1.57-9.13-4.76c0-2.46,1.74-4.06,4.81-4.09v-1.85c-4,0-6.38,2.26-6.38,5.94m.35,20.05H1061V336.07h-1.57v8.67H1051v-7.86h-1.56v7.86h-7.55v-8.41h-1.56Zm0,13.08H1061V349.24h-1.57v8.58h-19.14Zm0,13.08H1061V362.32h-1.57v8.58h-19.14Zm10.35,15.17c-6.12,0-9.13-1.51-9.13-4.73s2.93-4.78,9.13-4.78,9.14,1.54,9.14,4.76-2.9,4.75-9.14,4.75m-10.7-4.75c0,4.4,3.51,6.61,10.7,6.61s10.71-2.21,10.71-6.61-3.54-6.62-10.71-6.62-10.7,2.23-10.7,6.62m0,15.78c0,4.4,3.51,6.61,10.7,6.61s10.71-2.21,10.71-6.61c0-3.72-2.55-5.89-7.37-6.15v1.85c3.83.23,5.8,1.77,5.8,4.3,0,3.19-2.9,4.75-9.14,4.75s-9.13-1.56-9.13-4.75c0-2.47,1.74-4.07,4.81-4.09V393c-4,0-6.38,2.26-6.38,5.95m21.41,24.83v-1.57l-21.41-7.08v1.57Zm-21.06,24.68H1061V436.61h-3.42v7.68H1052v-7h-3.43v7h-4.87V436.9h-3.42Zm0,14.16H1061v-4.18h-9v-7h-3.43v7h-4.87v-7.4h-3.42Zm0,8H1061v-4.17h-20.71Zm0,14.36H1061V473.42h-3.42v7.39h-17.29Zm0,25.06H1061v-3.83h-14.5v-.05l14.5-5.11V496.3h-20.71v3.83h14.18v.06l-14.18,5.05Zm0,8H1061v-4.18h-20.71Zm10.35,13.31c-5.16,0-7.68-.29-7.68-2.87s2.52-2.87,7.68-2.87,7.69.26,7.69,2.87-2.46,2.87-7.69,2.87m-10.76-2.87c0,6.38,4.67,7,10.76,7s10.77-.7,10.77-7-4.62-7-10.77-7-10.76.7-10.76,7m.41,14.24h15c2.29,0,3.07.53,3.07,1.86s-.61,1.86-3.25,1.86h-.64v3.83h.85c4.55,0,6.12-2.12,6.12-5.49,0-4.49-2.12-6.23-6.12-6.23h-15Z"/></svg>